<svg
    xmlns="http://www.w3.org/2000/svg"
    viewBox="0 0 36 36"
    id="vector">
    <path
        id="path"
        d="M 24.46 16.92 L 23.38 16.92 L 23.38 14.04 C 23.38 13.241 22.732 12.6 21.94 12.6 L 19.06 12.6 L 19.06 11.52 C 19.06 11.043 18.87 10.585 18.533 10.247 C 18.195 9.91 17.737 9.72 17.26 9.72 C 16.944 9.72 16.634 9.803 16.36 9.961 C 16.086 10.119 15.859 10.346 15.701 10.62 C 15.543 10.894 15.46 11.204 15.46 11.52 L 15.46 12.6 L 12.58 12.6 C 12.198 12.6 11.832 12.752 11.562 13.022 C 11.292 13.292 11.14 13.658 11.14 14.04 L 11.14 16.776 L 12.22 16.776 C 13.3 16.776 14.164 17.64 14.164 18.72 C 14.164 19.8 13.3 20.664 12.22 20.664 L 11.14 20.664 L 11.14 23.4 C 11.14 23.782 11.292 24.148 11.562 24.418 C 11.832 24.688 12.198 24.84 12.58 24.84 L 15.316 24.84 L 15.316 23.76 C 15.316 22.68 16.18 21.816 17.26 21.816 C 18.34 21.816 19.204 22.68 19.204 23.76 L 19.204 24.84 L 21.94 24.84 C 22.322 24.84 22.688 24.688 22.958 24.418 C 23.228 24.148 23.38 23.782 23.38 23.4 L 23.38 20.52 L 24.46 20.52 C 24.937 20.52 25.395 20.33 25.733 19.993 C 26.07 19.655 26.26 19.197 26.26 18.72 C 26.26 18.243 26.07 17.785 25.733 17.447 C 25.395 17.11 24.937 16.92 24.46 16.92 Z"
        fill="#689f38"/>
</svg>
