<svg
    xmlns="http://www.w3.org/2000/svg"
    viewBox="0 0 36 36"
    id="vector">
    <path
        id="path"
        d="M 19.16 17.2 L 16.6 17.2 L 16.6 14 L 19.16 14 C 19.584 14 19.991 14.169 20.291 14.469 C 20.591 14.769 20.76 15.176 20.76 15.6 C 20.76 16.024 20.591 16.431 20.291 16.731 C 19.991 17.031 19.584 17.2 19.16 17.2 M 19 10.8 L 13.4 10.8 L 13.4 25.2 L 16.6 25.2 L 16.6 20.4 L 19 20.4 C 19.843 20.4 20.67 20.178 21.4 19.757 C 22.13 19.336 22.736 18.73 23.157 18 C 23.578 17.27 23.8 16.443 23.8 15.6 C 23.8 12.944 21.648 10.8 19 10.8 Z"
        fill="#01579b"/>
</svg>
