<svg
    xmlns="http://www.w3.org/2000/svg"
    viewBox="0 0 36 36"
    id="vector">
    <path
        id="path"
        d="M 16.992 17.776 C 17.368 18.76 17.328 19.784 16.2 20.192 C 13.88 21.048 13.36 18.8 13.328 18.688 L 16.992 17.776 M 12.968 17.128 L 16.424 16.272 C 16.272 15.432 16.504 14.592 16.504 13.6 C 16.504 12.256 15.44 9.624 13.744 10.048 C 11.808 10.528 11.528 12.68 11.6 13.72 C 11.696 14.76 12.912 16.984 12.968 17.128 M 22.68 24.28 C 22.656 24.4 22.128 26.64 19.808 25.792 C 18.688 25.376 18.64 24.352 19.016 23.368 L 22.68 24.28 M 24.4 19.32 C 24.48 18.28 24.208 16.12 22.264 15.64 C 20.576 15.2 19.512 17.848 19.512 19.2 C 19.512 20.184 19.736 21.024 19.6 21.864 L 23.04 22.72 C 23.104 22.576 24.312 20.352 24.4 19.32 Z"
        fill="#6d4c41"/>
</svg>
