<svg
    xmlns="http://www.w3.org/2000/svg"
    viewBox="0 0 36 36"
    id="vector">
    <path
        id="path"
        d="M 13.52 11.11 C 13.655 11.11 13.788 11.146 13.905 11.213 C 14.022 11.281 14.119 11.378 14.187 11.495 C 14.254 11.612 14.29 11.745 14.29 11.88 L 14.29 12.558 C 15.106 12.219 16.215 11.88 17.37 11.88 C 19.68 11.88 19.68 13.42 21.22 13.42 C 23.53 13.42 24.3 11.88 24.3 11.88 L 24.3 18.04 C 24.3 18.04 23.53 19.58 21.22 19.58 C 18.91 19.58 18.91 18.04 17.37 18.04 C 15.06 18.04 14.29 19.58 14.29 19.58 L 14.29 24.97 L 12.75 24.97 L 12.75 11.88 C 12.75 11.745 12.786 11.612 12.853 11.495 C 12.921 11.378 13.018 11.281 13.135 11.213 C 13.252 11.146 13.385 11.11 13.52 11.11 Z"
        fill="#c62828"/>
</svg>
