<svg xmlns="http://www.w3.org/2000/svg" xmlns:xlink="http://www.w3.org/1999/xlink" viewBox="0 0 36 36" id="type_multi">
		<ellipse id="marker_gc" cx="17.769" cy="18.001" rx="14.011" ry="14.011" fill="#fff" stroke="#383838" stroke-width=".75"/>
		<circle id="background" fill="#f57c00" cx="12" cy="12" r="12" transform="translate(6.3 6.3) scale(0.975)"/>
		<g transform="translate(7,7) scale(0.916666666667)">
			<circle cx="15.79" cy="16.8" r="2.25" fill="#fff" stroke-width="0"/>
			<circle cx="6.0248" cy="13.025" r="2.25" fill="#fff" stroke-width="0"/>
			<circle cx="16.589" cy="7.7744" r="1.5" fill="none" stroke="#fdffff" stroke-linecap="square" stroke-linejoin="round" stroke-width="1.5"/>
			<path d="m7.956 13.238c1.1817-0.02349 2.3677 0.19112 3.4663 0.62724 1.0217 0.40558 1.9671 1.0021 2.773 1.7497" fill="none" stroke="#fff" stroke-width="1.5"/>
			<path d="m12.773 6.625-0.26172 0.00977-0.26172 0.017578-0.26172 0.027344-0.26172 0.037109-0.25781 0.046875-0.25781 0.056641-0.25586 0.064453-0.25195 0.074219-0.19727 0.066406-0.01172 0.00391 0.51172 1.4102 0.14453-0.048828 0.20312-0.058594 0.20117-0.052734 0.20508-0.042969 0.20703-0.037109 0.20703-0.029297 0.20898-0.023437 0.20898-0.013672 0.20898-0.00781h0.20898l0.21094 0.00781 0.20898 0.013672 0.19922 0.021484 0.1582-1.4922-0.22461-0.023438-0.26172-0.017578-0.26367-0.0097656zm-3.7773 1.1328-0.13672 0.089844-0.16797 0.11523-0.16602 0.12109-0.16211 0.125-0.1582 0.12891-0.1543 0.13281-0.15234 0.13867-0.14648 0.14062-0.14258 0.14648-0.14062 0.14844-0.13477 0.1543-0.13086 0.15625-0.12695 0.16016-0.12305 0.16406-0.11719 0.16797-0.11328 0.16992-0.052734 0.08399 1.2734 0.79492 0.039063-0.06641 0.091797-0.13476 0.09375-0.13477 0.097656-0.13086 0.10156-0.12695 0.10352-0.125 0.10938-0.12305 0.11133-0.1211 0.11523-0.11523 0.11719-0.11328 0.12109-0.11133 0.125-0.10742 0.12695-0.10352 0.12891-0.099609 0.13281-0.095703 0.13477-0.09375 0.11914-0.076172z" fill="#fff"/>

		</g>
	</svg>
	
