<svg
    xmlns="http://www.w3.org/2000/svg"
    viewBox="0 0 36 36"
    id="vector">
    <path
        id="path"
        d="M 17 16.4 L 12.2 16.4 L 10.6 14.8 L 12.2 13.2 L 17 13.2 L 17 10.8 L 17.8 10 L 18.6 10.8 L 18.6 11.6 L 23.4 11.6 L 25 13.2 L 23.4 14.8 L 18.6 14.8 L 18.6 16.4 L 23.4 16.4 L 25 18 L 23.4 19.6 L 18.6 19.6 L 18.6 24.4 C 19.024 24.4 19.431 24.569 19.731 24.869 C 20.031 25.169 20.2 25.576 20.2 26 L 15.4 26 C 15.4 25.576 15.569 25.169 15.869 24.869 C 16.169 24.569 16.576 24.4 17 24.4 L 17 16.4 Z"
        fill="#f57c00"/>
</svg>
