<svg
    xmlns="http://www.w3.org/2000/svg"
    viewBox="0 0 36 36"
    id="vector">
    <path
        id="path"
        d="M 18 18 M 10.25 18 C 10.25 15.945 11.067 13.973 12.52 12.52 C 13.973 11.067 15.945 10.25 18 10.25 C 20.055 10.25 22.027 11.067 23.48 12.52 C 24.933 13.973 25.75 15.945 25.75 18 C 25.75 20.055 24.933 22.027 23.48 23.48 C 22.027 24.933 20.055 25.75 18 25.75 C 15.945 25.75 13.973 24.933 12.52 23.48 C 11.067 22.027 10.25 20.055 10.25 18"
        fill="#000000"
        fill-opacity="0"
        stroke="#c62828"
        stroke-width="1.75"/>
    <path
        id="path_1"
        d="M 18 18 M 15 18 C 15 17.205 15.316 16.441 15.879 15.879 C 16.441 15.316 17.205 15 18 15 C 18.795 15 19.559 15.316 20.121 15.879 C 20.684 16.441 21 17.205 21 18 C 21 18.795 20.684 19.559 20.121 20.121 C 19.559 20.684 18.795 21 18 21 C 17.205 21 16.441 20.684 15.879 20.121 C 15.316 19.559 15 18.795 15 18"
        fill="#c62828"/>
</svg>
