<svg xmlns="http://www.w3.org/2000/svg" xmlns:xlink="http://www.w3.org/1999/xlink" viewBox="0 0 24 24" id="marker_update_coordinates">
        <circle fill="#1B5E20" cx="12" cy="12" r="12"/>
        <circle fill="#43A047" cx="12" cy="12" r="10"/>
        <path fill="#fff" d="M9 11.5C7.62 11.5 6.5 10.38 6.5 9S7.62 6.5 9 6.5 11.5 7.62 11.5 9 10.38 11.5 9 11.5M9 2C5.13 2 2 5.13 2 9C2 14.25 9 22 9 22S16 14.25 16 9C16 5.13 12.87 2 9 2M18 17L23 12L18 7V17Z" transform="translate(4.5,4.5) scale(0.625)"/>
    </svg>
    
