<svg xmlns="http://www.w3.org/2000/svg" xmlns:xlink="http://www.w3.org/1999/xlink" viewBox="0 0 24 24" id="marker_stored">
        <g transform="translate(3,1.8) scale(0.8)">
            <path d="m17.833 1.5h-14c-1.295 0-2.3333 1.05-2.3333 2.3333v16.333c1.1e-6 1.2887 1.0447 2.3333 2.3333 2.3333h16.333c1.2887-1e-6 2.3333-1.0447 2.3333-2.3333v-14z" fill="#fff" style="paint-order:normal"/>
            <path d="m15 9h-10v-4h10m-3 14a3 3 0 0 1-3-3 3 3 0 0 1 3-3 3 3 0 0 1 3 3 3 3 0 0 1-3 3m5-16h-12c-1.11 0-2 0.9-2 2v14a2 2 0 0 0 2 2h14a2 2 0 0 0 2-2v-12l-4-4z" fill="#3c3c3c" style="paint-order:normal"/>
        </g>
    </svg>
    
