<?xml version="1.0" encoding="UTF-8"?>
<svg id="combined_marker_other_withpin" version="1.1" viewBox="0 0 36 36" xmlns="http://www.w3.org/2000/svg">
 <path id="pin" transform="matrix(1.3815 0 0 1.2895 -1.3404 .70603)" d="m14 21.197c-0.70408 0.29179-1.4046 0.93052-1.8086 1.7949-0.88162 1.8863 1.8086 4.0078 1.8086 4.0078s2.6902-2.1215 1.8086-4.0078c-0.40401-0.86441-1.1045-1.5031-1.8086-1.7949z" fill="#fff" fill-rule="evenodd" stroke="#383838" stroke-width=".5802" style="mix-blend-mode:normal"/>
 <path id="marker_other" transform="matrix(.60507 0 0 .6051 8.3219 -2.1594)" d="m42.711 33.316-13.358 23.137h-26.716l-13.358-23.137 13.358-23.137h26.716z" fill="#fff" stroke="#383838" stroke-width="1.2395"/>
 <g transform="translate(4.1874 5.5061)">
  <path id="background_other" transform="matrix(.50569 0 0 .50569 5.7241 -4.3537)" d="m42.711 33.316-13.358 23.137h-26.716l-13.358-23.137 13.358-23.137h26.716z" fill="#90a4ae"/>
 </g>
 <g transform="translate(7 7) scale(.91667)">
  <g id="icon" transform="translate(4.2 3.8) scale(.68)">
   <path id="outline" d="m22.776 9.142s-1.1129 5.668-1.2559 5.9678c-0.41356 0.3417-13.322 6.82-13.322 6.82-0.37493 0.12498-0.64626 0.11052-0.88371-0.0707 0 0-5.8446-6.5612-6.0622-7.1174-0.088017-0.27823-0.055864-6.5435-0.055864-6.5435z" fill="none" stroke="#fff" stroke-width="1.5"/>
   <path id="top" d="m16.116 2.0639 7.4939 6.1153c0.21209 0.28279-0.08837 0.45953-0.08837 0.45953l-14.793 6.0092c-0.34705 0.16835-0.69625 0.050181-0.88371-0.10604l-7.1757-6.6102c-0.63627-0.72464 0.31814-1.0251 0.31814-1.0251l14.157-4.8781c0.56557-0.22976 0.97208 0.035349 0.97208 0.035349zm7.4321 6.4237-0.3835 1.2639c-0.26933 0.2688-0.44314 0.37116-0.44314 0.37116l-14.139 6.4688c-0.64362 0.23745-0.97208-0.0707-0.97208-0.0707l-6.9813-6.9106c-0.18746-0.17497-0.15907-0.38883-0.15907-0.38883s-0.063329-0.4547-0.00233-1.8774z" fill="#fff"/>
   <path id="outline_center" d="m7.9226 22.368 0.39988-6.9294" fill="none" stroke="#fff" stroke-width="1.5"/>
  </g>
 </g>
 <path d="m25.133 8.7451-7.1426 7.1426-7.123-7.123a11.7 11.7 0 0 0-2.1211 2.1211l7.123 7.123-7.123 7.123a11.7 11.7 0 0 0 2.1211 2.1211l7.123-7.123 7.125 7.125a11.7 11.7 0 0 0 2.1211-2.1211l-7.125-7.125 7.1426-7.1426a11.7 11.7 0 0 0-2.1211-2.1211z" fill="#b71c1c"/>
</svg>
