<svg xmlns="http://www.w3.org/2000/svg" xmlns:xlink="http://www.w3.org/1999/xlink" viewBox="0 0 24 24" id="dot_marker_usermodifiedcoords">
        <circle id="background" fill="#fff" cx="12" cy="12" r="12"/>
        <circle id="foreground" fill="#303F9F" cx="12" cy="12" r="10"/>
        <g transform="translate(4.56,4.56)">
            <path transform="scale(.62)" d="m12 11.5a2.5 2.5 0 0 1-2.5-2.5 2.5 2.5 0 0 1 2.5-2.5 2.5 2.5 0 0 1 2.5 2.5 2.5 2.5 0 0 1-2.5 2.5m0-9.5a7 7 0 0 0-7 7c0 5.25 7 13 7 13s7-7.75 7-13a7 7 0 0 0-7-7z" fill="#fff"/>
        </g>
    </svg>
    
