<svg xmlns="http://www.w3.org/2000/svg" xmlns:xlink="http://www.w3.org/1999/xlink" viewBox="0 0 24 24" id="dot_not_found_offline">
        <circle id="background" fill="#fff" cx="12" cy="12" r="12"/>
        <circle id="foreground" fill="#448AFF" cx="12" cy="12" r="10"/>
        <path d="m8.5 8c-0.8 0-1.5 0.7-1.5 1.5s0.7 1.5 1.5 1.5c0.8 0 1.5-0.7 1.5-1.5s-0.7-1.5-1.5-1.5zm7 0c-0.8 0-1.5 0.7-1.5 1.5s0.7 1.5 1.5 1.5 1.5-0.7 1.5-1.5-0.7-1.5-1.5-1.5zm-3.5 6c-2.0524 0.045447-4.1497 1.1601-5.1094 3.5h10.219c-0.97973-2.4853-3.3594-3.5-5.1094-3.5z" fill="#1A237E"/>
    </svg>
    
