<?xml version="1.0" encoding="UTF-8" standalone="no"?>
<svg
   version="1.1"
   width="24"
   height="24"
   viewBox="0 0 24 24"
   id="svg4"
   sodipodi:docname="home.svg"
   inkscape:version="1.1.1 (3bf5ae0d25, 2021-09-20)"
   xmlns:inkscape="http://www.inkscape.org/namespaces/inkscape"
   xmlns:sodipodi="http://sodipodi.sourceforge.net/DTD/sodipodi-0.dtd"
   xmlns="http://www.w3.org/2000/svg"
   xmlns:svg="http://www.w3.org/2000/svg">
  <defs
     id="defs8" />
  <sodipodi:namedview
     id="namedview6"
     pagecolor="#ffffff"
     bordercolor="#999999"
     borderopacity="1"
     inkscape:pageshadow="0"
     inkscape:pageopacity="0"
     inkscape:pagecheckerboard="0"
     showgrid="false"
     inkscape:zoom="47.258303"
     inkscape:cx="8.8661668"
     inkscape:cy="12.749082"
     inkscape:window-width="1920"
     inkscape:window-height="991"
     inkscape:window-x="-9"
     inkscape:window-y="-9"
     inkscape:window-maximized="1"
     inkscape:current-layer="svg4" />
  <path
     d="M15,7v12.97l-4.21,-1.81 -0.79,-0.34 -0.79,0.34L5,19.97L5,7h10m4,-6L8.99,1C7.89,1 7,1.9 7,3h10c1.1,0 2,0.9 2,2v13l2,1L21,3c0,-1.1 -0.9,-2 -2,-2zM15,5L5,5c-1.1,0 -2,0.9 -2,2v16l7,-3 7,3L17,7c0,-1.1 -0.9,-2 -2,-2z"
     id="path2"
     style="fill:#ffffff" />
</svg>