<svg xmlns="http://www.w3.org/2000/svg" xmlns:xlink="http://www.w3.org/1999/xlink" viewBox="0 0 24 24" id="marker_unknown_offline">
        <circle fill="#424242" cx="12" cy="12" r="12"/>
        <path d="m12 2c-5.5228 0-10 4.4772-10 10 0 5.5228 4.4772 10 10 10 5.5228 0 10-4.4772 10-10 0-5.5228-4.4772-10-10-10zm-3.5 6c0.8 0 1.5 0.7 1.5 1.5s-0.7 1.5-1.5 1.5-1.5-0.7-1.5-1.5 0.7-1.5 1.5-1.5zm7 0c0.8 0 1.5 0.7 1.5 1.5s-0.7 1.5-1.5 1.5-1.5-0.7-1.5-1.5 0.7-1.5 1.5-1.5zm-2.9004 5.8008h4v2h-4c-1.4312-0.0021-2.7532 0.76057-3.4687 2l-1.7305-1c1.0725-1.8576 3.0543-3.0014 5.1992-3z" fill="#9e9e9e"/>
    </svg>
    
