<svg xmlns="http://www.w3.org/2000/svg" xmlns:xlink="http://www.w3.org/1999/xlink" viewBox="0 0 36 36" id="type_unknown">
		<ellipse id="marker_gc" cx="17.769" cy="18.001" rx="14.011" ry="14.011" fill="#fff" stroke="#383838" stroke-width=".75"/>
		<circle id="background" fill="#616161" cx="12" cy="12" r="12" transform="translate(6.3 6.3) scale(0.975)"/>
		<g transform="translate(7,7) scale(0.916666666667)">
			<g dominant-baseline="middle" fill="#fff">
				<path d="m5.5657 13.801q-1.0098-0.58203-1.0098-1.7461 0-1.1641 1.0098-1.7461 0.50586-0.29297 1.0098-0.29297 0.50391 0 1.0098 0.29297 1.0098 0.58203 1.0098 1.7461 0 1.1641-1.0098 1.7461-0.50586 0.29297-1.0098 0.29297-0.50391 0-1.0098-0.29297z"/>
				<path d="m10.99 13.801q-1.0098-0.58203-1.0098-1.7461 0-1.1641 1.0098-1.7461 0.50586-0.29297 1.0098-0.29297t1.0098 0.29297q1.0098 0.58203 1.0098 1.7461 0 1.1641-1.0098 1.7461-0.50586 0.29297-1.0098 0.29297t-1.0098-0.29297z"/>
				<path d="m16.415 13.801q-1.0098-0.58203-1.0098-1.7461 0-1.1641 1.0098-1.7461 0.50586-0.29297 1.0098-0.29297 0.50391 0 1.0098 0.29297 1.0098 0.58203 1.0098 1.7461 0 1.1641-1.0098 1.7461-0.50586 0.29297-1.0098 0.29297-0.50391 0-1.0098-0.29297z"/>
			</g>
			
		</g>
	</svg>
	
