<svg xmlns="http://www.w3.org/2000/svg" xmlns:xlink="http://www.w3.org/1999/xlink" viewBox="0 0 36 36" id="type_earth">
		<ellipse id="marker_gc" cx="17.769" cy="18.001" rx="14.011" ry="14.011" fill="#fff" stroke="#383838" stroke-width=".75"/>
		<circle id="background" fill="#0288d1" cx="12" cy="12" r="12" transform="translate(6.3 6.3) scale(0.975)"/>
		<g transform="translate(7,7) scale(0.916666666667)">
			<g>
				<circle cx="12" cy="12" r="8.25" fill="none" stroke="#fff" stroke-linecap="square" stroke-linejoin="round" stroke-width="1.5"/>
				<path d="m6.5849 6.4523c0.66071-0.33577 1.6998-1.0669 2.1682-0.49249 0.27645 0.33905-0.81335 0.8516-0.54241 1.1951 0.21006 0.26629 0.68717-0.32667 0.99899-0.19324 0.25896 0.11081 0.38737 0.43794 0.45673 0.71094 0.063786 0.25106 0.11244 0.5791-0.057018 0.77502-0.29328 0.3391-0.90704 0.10105-1.3131 0.29101-0.23944 0.112-0.45954 0.28056-0.62794 0.48433-0.37664 0.45574-0.21146 1.5206-0.79935 1.5834-0.16547 0.01768-0.15431-0.34149-0.31407-0.38808-0.42379-0.12358-1.0499 0.02984-1.2559 0.42028-0.14622 0.27714-0.034071 0.78814 0.25697 0.90425 0.21575 0.08607 0.38401-0.44158 0.59959-0.3551 0.42554 0.17071 0.046876 1.0002 0.37101 1.3245 0.11873 0.11879 0.31821 0.15482 0.48512 0.13614 0.21033-0.02354 0.34768-0.2812 0.55826-0.30246 0.15285-0.01543 0.29218 0.09571 0.44093 0.13412 0.17378 0.04488 0.37965 0.0093 0.52661 0.11234 0.14051 0.09853 0.13264 0.33739 0.27254 0.43678 0.11928 0.08474 0.3128 0.0068 0.42814 0.09683 0.1332 0.10397 0.10184 0.34068 0.22854 0.45248 0.26558 0.23435 0.758 0.09934 1.0007 0.35731 0.18885 0.20071 0.2482 0.51909 0.23012 0.79408-0.01262 0.1921-0.1788 0.34389-0.23197 0.52891-0.1082 0.37651 0.04385 0.83537-0.17141 1.1627-0.13517 0.20553-0.55498 0.15305-0.62774 0.38804-0.020837 0.0673 0.084296 0.12284 0.085527 0.19328 0.00446 0.25531-0.13173 0.50694-0.28532 0.71094-0.11612 0.15423-0.33815 0.20369-0.45693 0.35588-0.086851 0.11129-0.071082 0.28786-0.17125 0.38733-0.28476 0.28278-0.77117 0.70266-1.1045 0.47916-0.27582-0.18495-0.021026-0.6665 0.019811-0.99607 0.031262-0.2523 0.19552-0.49009 0.17141-0.74318-0.01339-0.14054-0.1199-0.25585-0.17141-0.3873-0.13839-0.35318-0.20255-0.73564-0.369-1.0765-0.22968-0.47031-0.74415-0.80404-0.85833-1.3148-0.045048-0.20152 0.027657-0.41533 0.085527-0.61355 0.089622-0.30698 0.53912-0.58446 0.3996-0.87221-0.059798-0.12332-0.27309-0.044188-0.39955-0.097024-0.45402-0.18969-0.86582-0.47583-1.2559-0.77573-0.31503-0.24218-0.62512-0.50314-0.8661-0.81908-0.2012-0.26379-0.43878-0.54777-0.46833-0.87821-0.081327-0.90948 0.33725-1.845 0.83969-2.6075 0.4194-0.63643 1.0441-1.1573 1.7236-1.5026z" fill="#faffff" stroke-width="0"/>
				<path d="m10.149 5.324c-0.02269-0.10905 0.15137-0.17544 0.36074-0.25622 0.20938-0.080781 0.45407-0.17594 0.71925-0.23961 0.26518-0.063668 0.55048-0.095946 0.81704-0.063328 0.26656 0.032617 0.51402 0.12955 0.57991 0.32342 0.06589 0.19387-0.04838 0.4846-0.3144 0.71039-0.26602 0.22579-0.68452 0.38736-0.97972 0.56524-0.2952 0.17788-0.46648 0.37179-0.60893 0.35616-0.14245-0.015634-0.25672-0.24194-0.27133-0.39877-0.01462-0.15683 0.07102-0.24298 0.11385-0.32864 0.04282-0.085656 0.04282-0.17181-0.06602-0.29034-0.10885-0.11854-0.3277-0.26924-0.35039-0.37829z" fill="#fcffff" stroke-width="0"/>
			</g>
			<g fill="#fff" stroke-width="0">
				<path d="m15.451 17.85c-0.01413-0.12881-0.04251-0.38753-0.11362-0.67828-0.07111-0.29075-0.18526-0.61363-0.21404-0.94758-0.02878-0.33395 0.02836-0.67855 0.02395-0.91534-0.0044-0.23679-0.07114-0.36615-0.1024-0.51978-0.03126-0.15363-0.0264-0.3313-0.06874-0.47123s-0.13284-0.24219-0.15603-0.36755 0.02206-0.27338-0.05573-0.38923-0.28-0.19938-0.55263-0.2038c-0.27263-0.0044-0.61518 0.07093-0.90768-0.02809-0.2925-0.09903-0.5351-0.37364-0.70418-0.62401-0.16908-0.25036-0.26418-0.4766-0.29302-0.68141-0.02884-0.2048 0.0092-0.38771 0.08055-0.60323 0.0713-0.21552 0.17586-0.46337 0.3614-0.74364 0.18555-0.28027 0.45194-0.59253 0.75686-0.78106 0.30492-0.18853 0.64749-0.25308 1.0426-0.2205 0.39506 0.032584 0.84219 0.16181 1.2085 0.25327 0.36633 0.091457 0.65188 0.14526 0.85595 0.10746 0.20406-0.037808 0.3278-0.16704 0.27599-0.26377-0.05181-0.096735-0.28036-0.16128-0.45655-0.27395-0.17619-0.11267-0.29967-0.27424-0.39531-0.27454-0.09564-3.046e-4 -0.16237 0.16126-0.23798 0.19389-0.07562 0.03262-0.16126-0.064264-0.2612-0.20417-0.099937-0.13991-0.21396-0.32294-0.28994-0.41505-0.07598-0.092104-0.1142-0.092104-0.10508 0.010751 0.0091 0.10285 0.06626 0.30737 0.01651 0.42266-0.04975 0.11529-0.20684 0.14268-0.26447 0.083902-0.05764-0.058783-0.01483-0.20452-0.03083-0.32027-0.016-0.11574-0.09193-0.2019-0.21106-0.20803-0.11913-0.00613-0.28095 0.069028-0.40477 0.1336-0.12382 0.064569-0.20946 0.11851-0.2763 0.20507-0.06683 0.08656-0.11439 0.20506-0.1973 0.29353-0.08291 0.088479-0.20179 0.14765-0.31554 0.14808-0.11375 4.219e-4 -0.22317-0.058753-0.27847-0.18512-0.0553-0.12636-0.0553-0.32026 0.05444-0.45015 0.10975-0.12988 0.32859-0.19456 0.3905-0.30157s-0.0332-0.25772-0.01657-0.34722c0.01663-0.089506 0.14497-0.11648 0.27286-0.21864s0.25622-0.27982 0.37336-0.36875c0.11714-0.088927 0.22196-0.088927 0.25582-0.14941 0.03386-0.060486-0.0026-0.18265 0.0168-0.2424 0.01939-0.059751 0.09394-0.055953 0.13068-0.010503 0.03675 0.04545 0.03675 0.1316 0.10866 0.19042 0.07191 0.058815 0.21456 0.091026 0.32876 0.013254 0.1142-0.077772 0.20132-0.2657 0.33962-0.39522s0.327-0.19998 0.32492-0.2166c-0.0021-0.016619-0.19517 0.02055-0.23848-0.070749-0.04331-0.091299 0.06413-0.31162 0.09468-0.42199 0.03055-0.11037-0.01701-0.11037-0.10789-0.034955-0.09088 0.075415-0.22402 0.22617-0.27602 0.33987-0.05199 0.11369-0.02336 0.18918-0.03321 0.29115-0.0099 0.10197-0.05754 0.23106-0.11872 0.27413-0.06118 0.043068-0.13724-5.7e-6 -0.19589-0.086272-0.05865-0.086266-0.09908-0.21624-0.19406-0.19335-0.09498 0.022886-0.24407 0.19973-0.32846 0.17909-0.08439-0.020637-0.10425-0.23975-0.02373-0.40914 0.08052-0.16939 0.26127-0.28782 0.35152-0.3788 0.09025-0.090974 0.09025-0.15565 0.23803-0.24784 0.14777-0.09219 0.44279-0.21068 0.76665-0.22657 0.32386-0.015891 0.67588 0.070326 0.97636 0.14806 0.30048 0.077737 0.54939 0.14695 1.0125 0.66442s1.1407 1.4824 1.5234 2.2705c0.3827 0.78813 0.47108 1.3995 0.44581 1.7164-0.02527 0.31697-0.16485 0.34083-0.41048 0.23471-0.24563-0.10612-0.59765-0.3431-0.77424-0.39156s-0.17659 0.09138-0.10474 0.22596c0.07185 0.13458 0.2145 0.26394 0.32336 0.2851 0.10886 0.02116 0.18504-0.06499 0.25189 1.86e-4 0.06684 0.06517 0.12398 0.28055-0.0284 0.54926-0.15238 0.26871-0.51399 0.59196-0.73246 0.71094-0.21847 0.11898-0.29464 0.03257-0.31426-0.05935-0.01962-0.09192 0.01847-0.1888-0.11897-0.47916-0.13745-0.29036-0.45138-0.7748-0.62307-1.0015-0.17169-0.22667-0.20033-0.19446-0.0763 0.14 0.12402 0.33446 0.40013 0.96999 0.6763 1.2763s0.55202 0.28454 0.68948 0.31193c0.13746 0.02738 0.13746 0.1028 0.08028 0.28027-0.05718 0.17747-0.17133 0.45746-0.32356 0.74818-0.15222 0.29072-0.34256 0.59238-0.42328 0.95363-0.08073 0.36125-0.05209 0.78128-0.16864 1.0957-0.11655 0.31438-0.37834 0.52426-0.46357 0.68091-0.08524 0.15665 0.0053 0.25892-3.1e-5 0.39853-0.0053 0.13961-0.10526 0.31728-0.24798 0.51105-0.14272 0.19378-0.32833 0.40392-0.56825 0.54122s-0.53494 0.20197-0.68282 0.23439c-0.14788 0.03242-0.14789 0.03242-0.16202-0.0964z"/>
				<path d="m13.606 7.0262c0.029 0 0.08601 0 0.1857 0.11908 0.09969 0.11908 0.24182 0.35518 0.25617 0.49999s-0.09848 0.1973-0.20368 0.24598c-0.1052 0.048678-0.20028 0.092376-0.21589 0.038382-0.01561-0.053994 0.04912-0.20577 0.05429-0.37309 0.0052-0.16732-0.05021-0.34885-0.0779-0.4396-0.02769-0.090744-0.02769-0.090744-0.02769-0.090744h0.029z"/>
				<path d="m13.463 7.4138c-0.06612 0.021399-0.13285 0.042996-0.15684 0.11364-0.02399 0.070648-0.0048 0.18901 0.04771 0.22605 0.05252 0.037043 0.13816-0.0059 0.16198-0.075179 0.02381-0.069279-0.01428-0.16629-0.05284-0.26452"/>
			</g>
		</g>
	</svg>
	
