<svg xmlns="http://www.w3.org/2000/svg" xmlns:xlink="http://www.w3.org/1999/xlink" viewBox="0 0 36 36" id="type_maze">
		<ellipse id="marker_gc" cx="17.769" cy="18.001" rx="14.011" ry="14.011" fill="#fff" stroke="#383838" stroke-width=".75"/>
		<circle id="background" fill="#afb42b" cx="12" cy="12" r="12" transform="translate(6.3 6.3) scale(0.975)"/>
		<g transform="translate(7,7) scale(0.916666666667)">
			<g transform="matrix(.16 0 0 .16 2.5596 2.5625)" fill="none" stroke="#fff" stroke-width="8">
				<g stroke-linecap="square">
					<path d="m42.029 75.971a24 24 0 1 1 16.971 7.0294"/>
					<path d="m74.307 22.045a40 40 0 0 1 21.648 21.648"/>
					<path d="m99 59a40 40 0 0 1-3.0448 15.307"/>
					<path d="m74.307 95.955a40 40 0 0 1-52.263-21.648"/>
					<path d="m22.045 43.693a40 40 0 0 1 21.648-21.648"/>
					<path d="m80.43 7.2627a56 56 0 1 1-21.43-4.2627"/>
				</g>
				<g>
					<line x1="59" x2="59" y1="19" y2="35"/>
					<line x1="80.43" x2="74.307" y1="7.2627" y2="22.045"/>
					<line x1="99" x2="83" y1="59" y2="59"/>
					<line x1="98.598" x2="87.284" y1="98.598" y2="87.284"/>
					<line x1="80.43" x2="74.307" y1="110.74" y2="95.955"/>
					<line x1="59" x2="59" y1="99" y2="83"/>
					<line x1="19" x2="35" y1="59" y2="59"/>
					<line x1="19.402" x2="30.716" y1="19.402" y2="30.716"/>
				</g>
			</g>
		</g>
	</svg>
	
