<svg xmlns="http://www.w3.org/2000/svg" xmlns:xlink="http://www.w3.org/1999/xlink" viewBox="0 0 36 36" id="type_hq">
		<ellipse id="marker_gc" cx="17.769" cy="18.001" rx="14.011" ry="14.011" fill="#fff" stroke="#383838" stroke-width=".75"/>
		<circle id="background" fill="#afb42b" cx="12" cy="12" r="12" transform="translate(6.3 6.3) scale(0.975)"/>
		<g transform="translate(7,7) scale(0.916666666667)">
			<g transform="translate(.3)" dominant-baseline="middle" fill="#fff" aria-label="HQ">
				<path d="m8.658 16.077h1.968v-8.316h-1.968v3.216h-2.496v-3.216h-1.968v8.316h1.968v-3.564h2.496z"/>
				<path d="m17.346 15.537c1.02-0.564 1.956-1.608 1.956-3.624 0-2.772-1.404-4.356-3.756-4.356-2.34 0-3.744 1.644-3.744 4.356 0 2.772 1.404 4.332 3.624 4.332 1.56 0 2.424 0.732 3.192 1.596l1.188-1.548c-0.672-0.48-1.38-0.756-2.46-0.756zm-3.48-3.624c0-2.1 0.576-2.916 1.68-2.916 1.116 0 1.692 0.816 1.692 2.916 0 2.112-0.564 2.928-1.692 2.928-1.08 0-1.68-0.816-1.68-2.928z"/>
			</g>
			
		</g>
	</svg>
	
