
	<svg xmlns="http://www.w3.org/2000/svg" viewBox="0 0 36 36" id="type_multi">
		<ellipse id="marker_gc" cx="18" cy="18" rx="14" ry="14" fill="#fff" stroke="#383838" stroke-width=".75" />
		<circle id="background" fill="#f57c00" cx="12" cy="12" r="12" transform="translate(6.3 6.3) scale(0.975)" />
		<g transform="translate(7,7) scale(0.916666666667)">
 <g transform="matrix(.95308 0 0 .95308 -.042173 .76525)" stroke-width="1.0492">
  <g transform="matrix(.51 0 0 .50688 9.7945 -1.3973)">
   <path d="m18.732 20.17s-0.75624 5.5143-0.89924 5.8141c-0.41356 0.3417-10.635 5.4249-10.635 5.4249-0.37493 0.12498-0.64626 0.11052-0.88371-0.0707 0 0-8.9642-9.5256-9.1817-10.082-0.08802-0.27823 0.015471-5.713 0.015471-5.713z" fill="none" stroke="#fff" stroke-width="1.5477"/>
   <path d="m6.6359 9.5817 12.848 9.7569c0.21209 0.28279-0.08837 0.45953-0.08837 0.45953l-11.668 4.3292c-0.34705 0.16835-0.69625 0.05018-0.88371-0.10604l-10.217-10.376c-0.63627-0.72464 0.31814-1.0251 0.31814-1.0251l8.7192-3.0741c0.56557-0.22976 0.97208 0.03535 0.97208 0.03535zm12.786 10.065-0.07262 0.91242c-0.26933 0.2688-1.1819 0.61203-1.1819 0.61203l-10.586 4.8994c-0.64362 0.23745-0.97208-0.0707-0.97208-0.0707l-10.022-10.676c-0.18746-0.17497-0.15907-0.38883-0.15907-0.38883s-0.06333-0.4547-0.0023-1.8774z" fill="#fff" stroke-width="1.4033"/>
   <path d="m6.9212 31.848 0.39988-6.9294" fill="none" stroke="#fff" stroke-width="1.5477"/>
  </g>
  <g transform="matrix(.51 0 0 .51 5.905 8.228)">
   <path d="m16.713-0.15831 9.4003 7.7617c0.21209 0.28279-0.08837 0.45953-0.08837 0.45953l-16.699 4.3628c-0.34705 0.16835-0.69625 0.05018-0.88371-0.10604l-7.1757-6.6102c-0.63627-0.72464 0.31814-1.0251 0.31814-1.0251l14.157-4.8781c0.56557-0.22976 0.97208 0.035349 0.97208 0.035349zm9.3385 8.0701-0.3835 1.2639c-0.26933 0.2688-0.44314 0.37116-0.44314 0.37116l-16.045 4.8224c-0.64362 0.23745-0.97208-0.0707-0.97208-0.0707l-6.9813-6.9106c-0.18746-0.17497-0.15907-0.38883-0.15907-0.38883s-0.063329-0.4547-0.00233-1.8774z" color="#000000" fill="#f57c00" style="-inkscape-stroke:none"/>
   <path id="outline" d="m0.45117 7.4141-0.003906 0.7793s-0.00883 1.5693-0.005859 3.1738c0.001485 0.80226 0.006168 1.6133 0.015625 2.2461 0.004728 0.31638 0.01158 0.58826 0.019531 0.79688 0.003976 0.10431 0.007875 0.19047 0.013672 0.26758 0.005797 0.0771-0.02065 0.07756 0.046875 0.29102l0.007813 0.02344 0.009766 0.02344c0.071782 0.18354 0.12056 0.23007 0.1875 0.32617 0.066943 0.0961 0.14705 0.20364 0.24219 0.32617 0.19027 0.24506 0.44001 0.54995 0.73242 0.90039 0.58482 0.70088 1.338 1.5766 2.084 2.4336 1.492 1.714 2.9551 3.3555 2.9551 3.3555l0.046875 0.05469 0.056641 0.04297c0.4412 0.33672 1.0818 0.35034 1.5762 0.18555l0.050781-0.01563 0.048828-0.02539s3.2273-1.62 6.5078-3.2832c1.6403-0.83159 3.2948-1.673 4.5664-2.3301 0.63581-0.32855 1.1759-0.6113 1.5742-0.82422 0.19915-0.10646 0.3621-0.19437 0.48828-0.26562 0.12618-0.07126 0.15537-0.06786 0.32617-0.20898l0.12891-0.10547 0.07031-0.14844c0.06707-0.14062 0.06422-0.16862 0.08398-0.24024 0.01977-0.07161 0.04123-0.1533 0.06445-0.25 0.04645-0.19339 0.10119-0.44463 0.16406-0.73438 0.12574-0.57948 0.27934-1.316 0.42773-2.0449 0.29678-1.4578 0.57422-2.877 0.57422-2.877l0.16798-0.85547-0.87109-0.039062zm1.4941 1.5664 19.924 0.87109c-0.10003 0.50608-0.19493 0.99292-0.40234 2.0117-0.14772 0.72558-0.29872 1.4617-0.42188 2.0293-0.06158 0.2838-0.11642 0.52526-0.1582 0.69922-0.0029 0.01192-0.0051 0.01608-0.0078 0.02734-0.10539 0.05888-0.23199 0.12963-0.40234 0.2207-0.38677 0.20676-0.92415 0.48566-1.5566 0.8125-1.265 0.65368-2.9162 1.4955-4.5547 2.3262-3.2435 1.6444-6.3708 3.2155-6.4355 3.248-0.11376 0.0408-0.13237 0.05031-0.14258 0.0332-0.083205-0.093418-1.4151-1.5894-2.8555-3.2441-0.74235-0.85282-1.4922-1.7224-2.0645-2.4082-0.28611-0.34289-0.52822-0.63915-0.69922-0.85938-0.08112-0.10448-0.14271-0.1891-0.18555-0.25-0.00251-0.04304-0.00538-0.08265-0.00781-0.14648-0.00714-0.18727-0.012943-0.45161-0.017578-0.76172-0.00927-0.62022-0.014146-1.4277-0.015625-2.2266-0.00223-1.2039 0.0018-1.8718 0.00391-2.3828z" color="#000000" fill="#fff" style="-inkscape-stroke:none"/>
   <path id="top" d="m16.116 2.0639 7.4939 6.1153c0.21209 0.28279-0.08837 0.45953-0.08837 0.45953l-14.793 6.0092c-0.34705 0.16835-0.69625 0.050181-0.88371-0.10604l-7.1757-6.6102c-0.63627-0.72464 0.31814-1.0251 0.31814-1.0251l14.157-4.8781c0.56557-0.22976 0.97208 0.035349 0.97208 0.035349zm7.4321 6.4237-0.3835 1.2639c-0.26933 0.2688-0.44314 0.37116-0.44314 0.37116l-14.139 6.4688c-0.64362 0.23745-0.97208-0.0707-0.97208-0.0707l-6.9813-6.9106c-0.18746-0.17497-0.15907-0.38883-0.15907-0.38883s-0.063329-0.4547-0.00233-1.8774z" color="#000000" fill="#fff" style="-inkscape-stroke:none"/>
   <path id="outline_center" d="m7.5742 15.396-0.40039 6.9297 1.498 0.08594 0.39844-6.9297z" color="#000000" fill="#fff" style="-inkscape-stroke:none"/>
  </g>
 </g>
		</g>
	</svg>