<svg xmlns="http://www.w3.org/2000/svg" xmlns:xlink="http://www.w3.org/1999/xlink" viewBox="0 0 36 36" id="type_virtual">
		<ellipse id="marker_gc" cx="17.769" cy="18.001" rx="14.011" ry="14.011" fill="#fff" stroke="#383838" stroke-width=".75"/>
		<circle id="background" fill="#0288d1" cx="12" cy="12" r="12" transform="translate(6.3 6.3) scale(0.975)"/>
		<g transform="translate(7,7) scale(0.916666666667)">
			<g transform="translate(3.6,3)">
				<path fill="#fff" d="M12,2A9,9 0 0,0 3,11V22L6,19L9,22L12,19L15,22L18,19L21,22V11A9,9 0 0,0 12,2M9,8A2,2 0 0,1 11,10A2,2 0 0,1 9,12A2,2 0 0,1 7,10A2,2 0 0,1 9,8M15,8A2,2 0 0,1 17,10A2,2 0 0,1 15,12A2,2 0 0,1 13,10A2,2 0 0,1 15,8Z" transform="scale(0.7)"/>
			</g>
		</g>
	</svg>
	
