<svg xmlns="http://www.w3.org/2000/svg" xmlns:xlink="http://www.w3.org/1999/xlink" viewBox="0 0 36 36" id="type_cito">
		<ellipse id="marker_gc" cx="17.769" cy="18.001" rx="14.011" ry="14.011" fill="#fff" stroke="#383838" stroke-width=".75"/>
		<circle id="background" fill="#d32f2f" cx="12" cy="12" r="12" transform="translate(6.3 6.3) scale(0.975)"/>
		<g transform="translate(7,7) scale(0.916666666667)">
			<g transform="translate(2.3721 1.85)">
				<path transform="scale(.8)" d="m21.82 15.42-2.5 4.33c-0.49 0.86-1.4 1.31-2.32 1.25h-2v2l-2.5-4.5 2.5-4.5v2h2.82l-2.22-3.85 4.33-2.5 1.8 3.12c0.52 0.77 0.59 1.8 0.09 2.65m-12.61-12.36h5c0.98 0 1.83 0.57 2.24 1.39l1 1.74 1.73-1-2.64 4.41-5.15 0.09 1.73-1-1.41-2.45-2.21 3.85-4.34-2.5 1.8-3.12c0.41-0.83 1.26-1.41 2.25-1.41m-4.16 16.7-2.5-4.33c-0.49-0.85-0.42-1.87 0.09-2.64l1-1.73-1.73-1 5.14 0.08 2.65 4.42-1.73-1-1.41 2.44h4.44v5h-3.6c-0.93 0.07-1.85-0.39-2.35-1.24z" fill="#fff"/>
			</g>
		</g>
	</svg>
	
