<svg xmlns="http://www.w3.org/2000/svg" xmlns:xlink="http://www.w3.org/1999/xlink" viewBox="0 0 36 36" id="waypoint_flag">
		<ellipse id="marker_gc" cx="17.769" cy="18.001" rx="14.011" ry="14.011" fill="#fff" stroke="#383838" stroke-width=".75"/>
		<g transform="translate(6,6)">
        <path fill="#C62828" d="M6,3A1,1 0 0,1 7,4V4.88C8.06,4.44 9.5,4 11,4C14,4 14,6 16,6C19,6 20,4 20,4V12C20,12 19,14 16,14C13,14 13,12 11,12C8,12 7,14 7,14V21H5V4A1,1 0 0,1 6,3Z" transform="translate(2.6,2.76) scale(0.77)"/>
    </g></svg>
    
